<svg xmlns="http://www.w3.org/2000/svg" viewBox="0 0 760 420" font-family="Segoe UI, Arial, sans-serif">
<rect width="760" height="420" fill="#ffffff"/>
<line x1="60" y1="20" x2="60" y2="370" stroke="#333" stroke-width="1.5"/>
<line x1="60" y1="370" x2="740" y2="370" stroke="#333" stroke-width="1.5"/>
<line x1="60" y1="370.0" x2="700" y2="370.0" stroke="#eee" stroke-width="1"/>
<text x="50" y="374.0" font-size="11" fill="#333" text-anchor="end">0</text>
<line x1="60" y1="302.0" x2="700" y2="302.0" stroke="#eee" stroke-width="1"/>
<text x="50" y="306.0" font-size="11" fill="#333" text-anchor="end">2</text>
<line x1="60" y1="234.0" x2="700" y2="234.0" stroke="#eee" stroke-width="1"/>
<text x="50" y="238.0" font-size="11" fill="#333" text-anchor="end">4</text>
<line x1="60" y1="166.0" x2="700" y2="166.0" stroke="#eee" stroke-width="1"/>
<text x="50" y="170.0" font-size="11" fill="#333" text-anchor="end">6</text>
<line x1="60" y1="98.0" x2="700" y2="98.0" stroke="#eee" stroke-width="1"/>
<text x="50" y="102.0" font-size="11" fill="#333" text-anchor="end">8</text>
<line x1="60" y1="30.0" x2="700" y2="30.0" stroke="#eee" stroke-width="1"/>
<text x="50" y="34.0" font-size="11" fill="#333" text-anchor="end">10</text>
<text x="14" y="200.0" font-size="12" fill="#2563eb" font-weight="600" text-anchor="middle" transform="rotate(-90 14 200.0)">Replicas</text>
<text x="710" y="374.0" font-size="11" fill="#333" text-anchor="start">0</text>
<text x="710" y="289.0" font-size="11" fill="#333" text-anchor="start">10</text>
<text x="710" y="204.0" font-size="11" fill="#333" text-anchor="start">20</text>
<text x="710" y="119.0" font-size="11" fill="#333" text-anchor="start">30</text>
<text x="710" y="34.0" font-size="11" fill="#333" text-anchor="start">40</text>
<text x="746" y="200.0" font-size="12" fill="#059669" font-weight="600" text-anchor="middle" transform="rotate(90 746 200.0)">Offered load (VUs)</text>
<text x="60.0" y="390" font-size="11" fill="#333" text-anchor="middle">0s</text>
<text x="124.0" y="390" font-size="11" fill="#333" text-anchor="middle">60s</text>
<text x="188.0" y="390" font-size="11" fill="#333" text-anchor="middle">120s</text>
<text x="252.0" y="390" font-size="11" fill="#333" text-anchor="middle">180s</text>
<text x="316.0" y="390" font-size="11" fill="#333" text-anchor="middle">240s</text>
<text x="380.0" y="390" font-size="11" fill="#333" text-anchor="middle">300s</text>
<text x="444.0" y="390" font-size="11" fill="#333" text-anchor="middle">360s</text>
<text x="508.0" y="390" font-size="11" fill="#333" text-anchor="middle">420s</text>
<text x="572.0" y="390" font-size="11" fill="#333" text-anchor="middle">480s</text>
<text x="636.0" y="390" font-size="11" fill="#333" text-anchor="middle">540s</text>
<text x="700.0" y="390" font-size="11" fill="#333" text-anchor="middle">600s</text>
<text x="380.0" y="412" font-size="12" fill="#333" text-anchor="middle">Approx. seconds since watch start (assumes 15s HPA poll interval; final point confirmed separately, ~9.5 min later)</text>
<polyline points="60.0,370.0 92.0,30.0 284.0,30.0 316.0,370.0 700.0,370.0" fill="none" stroke="#059669" stroke-width="2.5" stroke-dasharray="5,3"/>
<polyline points="60.0,302.0 76.0,302.0 76.0,302.0 92.0,302.0 92.0,302.0 108.0,302.0 108.0,302.0 124.0,302.0 124.0,268.0 140.0,268.0 140.0,268.0 156.0,268.0 156.0,268.0 172.0,268.0 172.0,268.0 188.0,268.0 188.0,268.0 204.0,268.0 204.0,268.0 220.0,268.0 220.0,268.0 236.0,268.0 236.0,268.0 252.0,268.0 252.0,268.0 268.0,268.0 268.0,268.0 284.0,268.0 284.0,268.0 300.0,268.0 300.0,268.0 316.0,268.0 316.0,268.0 666.9,268.0 666.9,268.0 668.0,268.0 668.0,302.0 700.0,302.0" fill="none" stroke="#2563eb" stroke-width="3"/>
<circle cx="60.0" cy="302.0" r="3" fill="#2563eb"/>
<circle cx="76.0" cy="302.0" r="3" fill="#2563eb"/>
<circle cx="92.0" cy="302.0" r="3" fill="#2563eb"/>
<circle cx="108.0" cy="302.0" r="3" fill="#2563eb"/>
<circle cx="124.0" cy="268.0" r="3" fill="#2563eb"/>
<circle cx="140.0" cy="268.0" r="3" fill="#2563eb"/>
<circle cx="156.0" cy="268.0" r="3" fill="#2563eb"/>
<circle cx="172.0" cy="268.0" r="3" fill="#2563eb"/>
<circle cx="188.0" cy="268.0" r="3" fill="#2563eb"/>
<circle cx="204.0" cy="268.0" r="3" fill="#2563eb"/>
<circle cx="220.0" cy="268.0" r="3" fill="#2563eb"/>
<circle cx="236.0" cy="268.0" r="3" fill="#2563eb"/>
<circle cx="252.0" cy="268.0" r="3" fill="#2563eb"/>
<circle cx="268.0" cy="268.0" r="3" fill="#2563eb"/>
<circle cx="284.0" cy="268.0" r="3" fill="#2563eb"/>
<circle cx="300.0" cy="268.0" r="3" fill="#2563eb"/>
<circle cx="316.0" cy="268.0" r="3" fill="#2563eb"/>
<circle cx="666.9" cy="268.0" r="3" fill="#2563eb"/>
<circle cx="668.0" cy="302.0" r="3" fill="#2563eb"/>
<polyline points="60.0,370.0 76.0,370.0 92.0,312.2 108.0,87.8 124.0,87.8 140.0,183.0 156.0,179.6 172.0,295.2 188.0,370.0 204.0,370.0 220.0,370.0 236.0,370.0 252.0,370.0 268.0,370.0 284.0,370.0 300.0,370.0 316.0,370.0 666.9,370.0 668.0,370.0" fill="none" stroke="#ea580c" stroke-width="1.5" opacity="0.7"/>
<line x1="60" y1="166.0" x2="700" y2="166.0" stroke="#ea580c" stroke-width="1" stroke-dasharray="2,2" opacity="0.4"/>
<text x="60" y="18" font-size="15" font-weight="700" fill="#111">HPA scale-out under real load: backend-hpa, k3d cluster (2026-09-29 run)</text>
<line x1="510" y1="42" x2="535" y2="42" stroke="#2563eb" stroke-width="3"/>
<text x="540" y="46" font-size="11" fill="#333">Replicas</text>
<line x1="510" y1="60" x2="535" y2="60" stroke="#059669" stroke-width="2.5" stroke-dasharray="5,3"/>
<text x="540" y="64" font-size="11" fill="#333">Offered load (VUs, design ramp)</text>
<line x1="510" y1="78" x2="535" y2="78" stroke="#ea580c" stroke-width="1.5"/>
<text x="540" y="82" font-size="11" fill="#333">CPU % of 60% target (ref.)</text>
</svg>
